<svg data-name="レイヤー 1" xmlns="http://www.w3.org/2000/svg" viewBox="0 0 140 140"><path d="M15.54 113.26q-6.85-7.14-6.86-19V45.78q0-11.89 6.86-19t18.2-7.14q11.34 0 18.27 7.14t6.93 19v48.44q0 11.9-6.93 19t-18.27 7.18q-11.34 0-18.2-7.14zM42.28 105q3.22-3.78 3.22-9.94V44.94q0-6.16-3.22-9.94a10.66 10.66 0 00-8.54-3.78 10.52 10.52 0 00-8.4 3.78q-3.22 3.78-3.22 9.94v50.12q0 6.16 3.22 9.94a10.52 10.52 0 008.4 3.78 10.66 10.66 0 008.54-3.78zM131.32 88.9a59.53 59.53 0 01-1.26 12.74q-2 9-7.42 13.72t-15 4.76q-9.8 0-16-5.32t-7.35-14.56a73.73 73.73 0 01-.7-9.94A1.24 1.24 0 0185 88.9h10.62A1.24 1.24 0 0197 90.3a75.27 75.27 0 00.7 8.12 13.38 13.38 0 003.43 7.35 8.83 8.83 0 006.51 2.59q7.84 0 9.94-9.1a75.76 75.76 0 00.84-11.76 60.51 60.51 0 00-1.26-13.16 12.55 12.55 0 00-3.57-6.09 8.64 8.64 0 00-6-2.17 7 7 0 00-3.78 1.26 1.35 1.35 0 01-1 .42 1.22 1.22 0 01-1-.56l-5.21-5.46a1.69 1.69 0 01-.14-2l18.2-26.46q.14-.14 0-.42a.44.44 0 00-.42-.28H86a1.24 1.24 0 01-1.4-1.4V22.4A1.24 1.24 0 0186 21h43.68a1.24 1.24 0 011.4 1.4v9.24a2.84 2.84 0 01-.56 1.82L114.1 57.54c-.28.28-.19.51.28.7a15.8 15.8 0 019.62 5.25 26.65 26.65 0 015.81 11.27 64.16 64.16 0 011.51 14.14z" fill="#d4d5d6"/></svg>