<svg data-name="レイヤー 1" xmlns="http://www.w3.org/2000/svg" viewBox="0 0 140 140"><path d="M14.28 113.26q-6.85-7.14-6.86-19V45.78q0-11.89 6.86-19t18.2-7.14q11.34 0 18.27 7.14t6.93 19v48.44q0 11.9-6.93 19t-18.27 7.18q-11.34 0-18.2-7.14zM41 105q3.23-3.78 3.22-9.94V44.94q0-6.16-3.22-9.94a10.66 10.66 0 00-8.54-3.78A10.52 10.52 0 0024.08 35q-3.22 3.78-3.22 9.94v50.12q0 6.16 3.22 9.94a10.52 10.52 0 008.4 3.78A10.66 10.66 0 0041 105zM98.7 107.17a.46.46 0 00.42.21h32.06a1.24 1.24 0 011.4 1.4v8.82a1.24 1.24 0 01-1.4 1.4h-47a1.24 1.24 0 01-1.4-1.4v-9.24a2.84 2.84 0 01.56-1.82l4.34-6.44q13.27-19.18 20.54-31.1 8.4-14.28 8.4-23.8 0-6.3-2.87-10a9 9 0 00-7.49-3.71 8.9 8.9 0 00-7.42 3.64Q96 38.78 96.18 44.8v5.6a1.24 1.24 0 01-1.4 1.4H83.86a1.24 1.24 0 01-1.4-1.4v-6q.42-11.06 7.14-17.78t17.22-6.72q10.5 0 16.94 7t6.44 18.48a42.45 42.45 0 01-2.45 13.93 76.92 76.92 0 01-7.49 15.19q-3.49 5.59-14.7 22.26l-6.86 9.94a.44.44 0 000 .47z" fill="#d4d5d6"/></svg>