<svg data-name="レイヤー 1" xmlns="http://www.w3.org/2000/svg" viewBox="0 0 140 140"><path d="M26.6 113.26q-6.85-7.14-6.86-19V45.78q0-11.89 6.86-19t18.2-7.18q11.34 0 18.27 7.14t6.93 19v48.48q0 11.9-6.93 19T44.8 120.4q-11.34 0-18.2-7.14zM53.34 105q3.22-3.78 3.22-9.94V44.94q0-6.16-3.22-9.94a10.66 10.66 0 00-8.54-3.78A10.52 10.52 0 0036.4 35q-3.23 3.78-3.22 9.94v50.12q0 6.16 3.22 9.94a10.52 10.52 0 008.4 3.78 10.66 10.66 0 008.54-3.78zM107.66 21h11.2a1.24 1.24 0 011.4 1.4v95.2a1.24 1.24 0 01-1.4 1.4h-10.64a1.24 1.24 0 01-1.4-1.4V35.7a.67.67 0 00-.21-.49c-.14-.14-.26-.16-.35-.07L93.8 38.36l-.56.14c-.56 0-.93-.42-1.12-1.26l-.56-7.84a1.65 1.65 0 011-1.68l13.44-6.3a3.73 3.73 0 011.66-.42z" fill="#d4d5d6"/></svg>