<svg xmlns="http://www.w3.org/2000/svg" width="46" height="46" viewBox="0 0 46 46"><path d="M28,35H18a6.957,6.957,0,0,1-7-7V18a6.957,6.957,0,0,1,7-7H28a6.957,6.957,0,0,1,7,7V28A6.957,6.957,0,0,1,28,35ZM18,13.2A4.8,4.8,0,0,0,13.2,18V28A4.8,4.8,0,0,0,18,32.8H28A4.8,4.8,0,0,0,32.8,28V18A4.8,4.8,0,0,0,28,13.2Z"/><path d="M30.9,16.6a1.5,1.5,0,1,1-1.5-1.5A1.538,1.538,0,0,1,30.9,16.6Z"/><path d="M23,29.2A6.2,6.2,0,1,1,29.2,23,6.231,6.231,0,0,1,23,29.2ZM23,19a4,4,0,1,0,4,4A4.012,4.012,0,0,0,23,19Z"/></svg>