<svg xmlns="http://www.w3.org/2000/svg" width="50" height="50" viewBox="0 0 50 50"><path d="M25,40.29c-.975,0-10.98-11.081-11.07-11.192-2.6-3.232-3.243-5.477-3.417-7.853A7.32,7.32,0,0,1,12.27,16.2a7.4,7.4,0,0,1,5.224-2.455c4.524-.322,6.551,1.628,7.506,3.144.953-1.516,2.965-3.466,7.506-3.144A7.406,7.406,0,0,1,37.729,16.2a7.318,7.318,0,0,1,1.758,5.045c-.174,2.376-.821,4.621-3.418,7.853C35.979,29.209,25.975,40.29,25,40.29ZM18.492,15.147q-.427,0-.895.033a5.735,5.735,0,0,0-5.65,5.96c.158,2.168.733,4.105,3.105,7.057,2.333,2.906,8.3,8.868,9.948,10.418,1.645-1.551,7.617-7.514,9.948-10.418,2.372-2.952,2.947-4.889,3.1-7.057a5.735,5.735,0,0,0-5.65-5.96c-4.491-.326-5.957,1.742-6.742,3.574a.719.719,0,0,1-1.322,0C23.608,17.05,22.28,15.147,18.492,15.147Z"/><polygon points="29.474 25.256 26.61 25.256 26.61 22.393 23.389 22.393 23.389 25.256 20.526 25.256 20.526 28.478 23.389 28.478 23.389 31.341 26.61 31.341 26.61 28.478 29.474 28.478 29.474 25.256" fill="#f7c1e3"/><path d="M26.61,31.9H23.389a.56.56,0,0,1-.559-.56v-2.3h-2.3a.56.56,0,0,1-.559-.56V25.256a.559.559,0,0,1,.559-.559h2.3v-2.3a.56.56,0,0,1,.559-.56H26.61a.56.56,0,0,1,.56.56v2.3h2.3a.56.56,0,0,1,.56.559v3.221a.56.56,0,0,1-.56.56h-2.3v2.3A.56.56,0,0,1,26.61,31.9Zm-2.662-1.119h2.1v-2.3a.559.559,0,0,1,.559-.559h2.3v-2.1h-2.3a.56.56,0,0,1-.559-.56v-2.3h-2.1v2.3a.56.56,0,0,1-.559.56h-2.3v2.1h2.3a.559.559,0,0,1,.559.559Z"/></svg>