<svg xmlns="http://www.w3.org/2000/svg" width="50" height="50" viewBox="0 0 50 50"><path d="M22.262,31.723l-.123-.123,2.928-2.929,3.6-3.6L31.6,22.14l.123.123a2.877,2.877,0,0,0,4.069,0h0a3.371,3.371,0,0,0,0-4.767l0,0a2.857,2.857,0,0,0-2.371-.811,2.86,2.86,0,0,0-.811-2.372l-.175-.175A3.123,3.123,0,1,0,27.967,18.5l-2.934,2.933-3.6,3.6L18.5,27.968a3.122,3.122,0,0,0-4.363,4.467h0l.175.175a2.86,2.86,0,0,0,2.372.811,2.862,2.862,0,0,0,.811,2.371,3.371,3.371,0,0,0,4.767,0l0,0h0a2.877,2.877,0,0,0,0-4.069Z" fill="#f9eec0"/><path d="M19.877,37.5a4.064,4.064,0,0,1-2.895-1.2,3.556,3.556,0,0,1-1.023-2.159,3.557,3.557,0,0,1-2.16-1.024l-.175-.175A3.844,3.844,0,0,1,18.441,27l8.564-8.565a3.844,3.844,0,0,1,5.939-4.816l.175.177a3.548,3.548,0,0,1,1.023,2.158A3.548,3.548,0,0,1,36.3,16.983a4.1,4.1,0,0,1,0,5.79,3.607,3.607,0,0,1-4.673.357l-8.5,8.5A3.6,3.6,0,0,1,22.77,36.3,4.068,4.068,0,0,1,19.877,37.5Zm-3.2-4.8a.724.724,0,0,1,.716.8,2.142,2.142,0,0,0,.6,1.778,2.717,2.717,0,0,0,3.752,0,2.156,2.156,0,0,0,0-3.05h0l-.123-.123a.72.72,0,0,1,0-1.018l9.459-9.459a.722.722,0,0,1,.51-.211h0a.719.719,0,0,1,.51.212l.123.123a2.212,2.212,0,0,0,3.05,0,2.653,2.653,0,0,0,0-3.752h0a2.143,2.143,0,0,0-1.774-.6.719.719,0,0,1-.8-.628.707.707,0,0,1,0-.172,2.148,2.148,0,0,0-.6-1.778l-.176-.176a2.464,2.464,0,0,0-3.4,0A2.388,2.388,0,0,0,28.489,18a.72.72,0,0,1-.012,1.006l-9.47,9.47A.721.721,0,0,1,18,28.489a2.4,2.4,0,1,0-3.356,3.437l.175.175a2.149,2.149,0,0,0,1.778.6.785.785,0,0,1,.084,0Z"/></svg>