<svg xmlns="http://www.w3.org/2000/svg" width="62.228" height="56.038" viewBox="0 0 62.228 56.038"><path d="M14.934,4.8l-.451,2.559A7.305,7.305,0,0,0,24.175,15.5h0a7.306,7.306,0,0,0,2.2-12.461l-1.99-1.669A5.806,5.806,0,0,0,14.934,4.8Z"/><path d="M33.808,4.8l-.451,2.559A7.305,7.305,0,0,0,43.049,15.5h0a7.306,7.306,0,0,0,2.2-12.461l-1.99-1.669A5.806,5.806,0,0,0,33.808,4.8Z"/><path d="M48.175,18.515l-.45,2.558a7.3,7.3,0,0,0,9.692,8.133h0a7.306,7.306,0,0,0,2.2-12.461l-1.989-1.669A5.807,5.807,0,0,0,48.175,18.515Z"/><path d="M.566,18.515l-.45,2.558a7.3,7.3,0,0,0,9.692,8.133h0a7.306,7.306,0,0,0,2.2-12.461l-1.989-1.669A5.807,5.807,0,0,0,.566,18.515Z"/><path d="M16.38,30.021l-2,3.125A14.865,14.865,0,0,0,26.887,56.038h8.454A14.865,14.865,0,0,0,47.853,33.146l-2.005-3.125A17.5,17.5,0,0,0,16.38,30.021Z"/></svg>