<svg xmlns="http://www.w3.org/2000/svg" width="50" height="50" viewBox="0 0 50 50"><path d="M28.741,15.97a13.875,13.875,0,0,0-9.116-3.257c-6.995,0-12.665,4.768-12.665,10.651,0,5.257,4.534,9.614,10.491,10.482l2.174,3.44,2.174-3.44A14.046,14.046,0,0,0,26.672,32.2" fill="#fff"/><path d="M19.625,38a.71.71,0,0,1-.6-.331l-2-3.168C10.761,33.452,6.25,28.813,6.25,23.364,6.25,17.1,12.25,12,19.625,12a14.523,14.523,0,0,1,9.583,3.432.71.71,0,0,1-.934,1.07,13.1,13.1,0,0,0-8.649-3.082c-6.592,0-11.954,4.46-11.954,9.941,0,4.832,4.156,8.945,9.883,9.78a.707.707,0,0,1,.5.323l1.574,2.491L21.2,33.467a.709.709,0,0,1,.5-.323,13.277,13.277,0,0,0,4.627-1.559.71.71,0,0,1,.7,1.237A14.649,14.649,0,0,1,22.227,34.5l-2,3.168A.709.709,0,0,1,19.625,38Z"/><path d="M43.04,24.505c0-4.993-4.813-9.04-10.75-9.04s-10.75,4.047-10.75,9.04c0,4.462,3.849,8.16,8.905,8.9l1.845,2.92,1.845-2.92C39.191,32.665,43.04,28.967,43.04,24.505Z" fill="#c1e1f4"/><path d="M32.29,37.032a.708.708,0,0,1-.6-.331l-1.673-2.648c-5.343-.913-9.187-4.884-9.187-9.548,0-5.376,5.141-9.75,11.46-9.75s11.46,4.374,11.46,9.75c0,4.664-3.844,8.635-9.187,9.548L32.89,36.7A.708.708,0,0,1,32.29,37.032Zm0-20.857c-5.536,0-10.039,3.737-10.039,8.33,0,4.047,3.489,7.494,8.3,8.2a.712.712,0,0,1,.5.323l1.245,1.97,1.245-1.97a.712.712,0,0,1,.5-.323c4.807-.7,8.3-4.148,8.3-8.2C42.329,19.912,37.826,16.175,32.29,16.175Z"/><path d="M30.677,27.374a1.2,1.2,0,0,1,.194-.435,1.173,1.173,0,0,1,.767-.482,1.224,1.224,0,0,1,.91.206,1.209,1.209,0,0,1,.319.335,1.221,1.221,0,0,1-.043,1.342,1.159,1.159,0,0,1-.336.319,1.205,1.205,0,0,1-.906.151,1.183,1.183,0,0,1-.918-.961A1.19,1.19,0,0,1,30.677,27.374Zm.742-2.352,1.133-4.98,1.88.428L33.3,25.449Z"/></svg>