<?xml version="1.0" encoding="utf-8"?>
<!-- Generator: Adobe Illustrator 24.0.1, SVG Export Plug-In . SVG Version: 6.00 Build 0)  -->
<svg version="1.1" id="レイヤー_1" xmlns="http://www.w3.org/2000/svg" xmlns:xlink="http://www.w3.org/1999/xlink" x="0px"
	 y="0px" viewBox="0 0 268.6 268.6" enable-background="new 0 0 268.6 268.6" xml:space="preserve">
<circle fill="#FFFFFF" cx="134.3" cy="134.3" r="134.3"/>
<path fill="#999999" d="M73.9,133.7h2.6c0.9,0,1.7,0.8,1.7,1.7l0,0c1.3-1.4,3.1-2.2,5-2.2c1.9-0.1,3.7,0.6,5,2c1,1.1,1.5,3,1.5,5.6
	v11.3h-2.2c-1.1,0-2-0.9-2-2l0,0v-8.2c0.1-1.3-0.1-2.6-0.8-3.8c-0.7-0.8-1.7-1.2-2.7-1.1c-1.2-0.1-2.3,0.4-3,1.4
	c-0.7,1.5-1,3.2-0.9,4.8v8.9h-2.2c-1.1,0-2-0.9-2-2l0,0V133.7z"/>
<path fill="#999999" d="M103.7,142.8c0-2.6,1-5,2.8-6.8c3.9-3.7,10-3.7,13.9,0c3.8,3.8,3.8,10,0,13.8c-1.9,1.8-4.4,2.8-7,2.8
	c-2.6,0.1-5.1-1-6.9-2.8C104.6,147.9,103.6,145.4,103.7,142.8z M108,142.8c-0.1,1.6,0.4,3.1,1.5,4.4c2.2,2.2,5.7,2.2,8,0
	c2-2.5,2-6.1,0-8.6c-2.2-2.2-5.7-2.2-7.9,0C108.5,139.8,108,141.3,108,142.8L108,142.8z"/>
<path d="M140.3,134.9l4.3,9.3l3.6-8.5c0.4-0.9,1.4-1.3,2.2-0.9c0.4,0.2,0.7,0.5,0.9,0.9l3.6,8.5l4.2-9.3c0.3-0.7,1.1-1.2,1.9-1.2
	h3.4l-8.6,17.7c-0.2,0.5-0.9,0.7-1.4,0.5c-0.2-0.1-0.4-0.3-0.5-0.5l-4.2-9.8l-4.3,9.8c-0.2,0.5-0.8,0.8-1.3,0.5
	c-0.2-0.1-0.4-0.3-0.5-0.5l-8.6-17.7h3.5C139.3,133.7,140,134.2,140.3,134.9z"/>
<path d="M190.4,133.7h2.3c1.1,0,1.9,0.9,1.9,1.9c0,0,0,0,0,0v16.4h-2.3c-1.1,0-1.9-0.9-1.9-1.9l0,0c-3.1,3.2-8.3,3.3-11.5,0.1
	c-0.1-0.1-0.3-0.3-0.4-0.4c-1.7-1.9-2.6-4.4-2.5-7c-0.1-2.5,0.8-5,2.5-6.9c1.5-1.8,3.8-2.8,6.2-2.8c2.2,0,4.3,1,5.7,2.6L190.4,133.7
	z M180.4,142.8c-0.1,1.6,0.4,3.1,1.4,4.3c0.9,1.1,2.2,1.7,3.7,1.7c1.4,0.1,2.8-0.5,3.8-1.6c1.9-2.5,1.9-6,0-8.5
	c-0.9-1.1-2.3-1.7-3.8-1.6c-1.4,0-2.7,0.6-3.7,1.7C180.8,139.8,180.3,141.3,180.4,142.8L180.4,142.8z"/>
<path d="M165.3,69.8c0,17.1-13.9,31-31,31c0,0,0,0,0,0c-17.1,0-31.6-13.9-31-31c0.6-17.7,16.1-23.3,32.6-22.6
	C153,47.8,165.3,52.7,165.3,69.8z"/>
<g>
	<path d="M83,188.3v18.1h-4.7v-18.1H83z"/>
	<path d="M108,206.4h-5.9l-4.5-7v7H93v-18.1h7.3c1,0,1.9,0.1,2.6,0.4c0.8,0.3,1.4,0.7,1.9,1.2c0.5,0.5,0.9,1.1,1.1,1.8
		s0.4,1.4,0.4,2.2c0,1.4-0.3,2.5-1,3.3c-0.7,0.9-1.6,1.4-2.9,1.7L108,206.4z M97.7,196.4h0.9c0.9,0,1.6-0.2,2.1-0.6
		c0.5-0.4,0.7-0.9,0.7-1.7s-0.2-1.3-0.7-1.7c-0.5-0.4-1.2-0.6-2.1-0.6h-0.9V196.4z"/>
	<path d="M115.1,197.3c0-1.3,0.2-2.6,0.7-3.8c0.5-1.2,1.2-2.2,2.1-3c0.9-0.9,1.9-1.5,3.2-2s2.6-0.7,4-0.7c1.5,0,2.8,0.2,4,0.7
		c1.2,0.5,2.3,1.2,3.2,2c0.9,0.9,1.6,1.9,2.1,3c0.5,1.2,0.7,2.4,0.7,3.8c0,1.3-0.2,2.6-0.7,3.8c-0.5,1.2-1.2,2.2-2.1,3
		c-0.9,0.9-1.9,1.5-3.2,2c-1.2,0.5-2.6,0.7-4,0.7c-1.5,0-2.8-0.2-4-0.7c-1.2-0.5-2.3-1.2-3.2-2c-0.9-0.9-1.6-1.9-2.1-3
		C115.4,199.9,115.1,198.7,115.1,197.3z M120,197.3c0,0.7,0.1,1.4,0.4,2c0.3,0.6,0.6,1.1,1.1,1.6c0.5,0.4,1,0.8,1.6,1
		c0.6,0.2,1.3,0.4,2,0.4s1.3-0.1,2-0.4c0.6-0.2,1.2-0.6,1.6-1c0.5-0.4,0.8-1,1.1-1.6c0.3-0.6,0.4-1.3,0.4-2c0-0.7-0.1-1.4-0.4-2
		c-0.3-0.6-0.6-1.1-1.1-1.6c-0.5-0.4-1-0.8-1.6-1c-0.6-0.2-1.3-0.4-2-0.4s-1.3,0.1-2,0.4s-1.2,0.6-1.6,1c-0.5,0.4-0.8,1-1.1,1.6
		C120.2,195.9,120,196.6,120,197.3z"/>
	<path d="M149.1,195.3h6.8v-7h4.7v18.1h-4.7v-7.5h-6.8v7.5h-4.7v-18.1h4.7V195.3z"/>
	<path d="M181.7,203.2H175l-1.1,3.1h-5l6.9-18.1h5.1l6.9,18.1h-5L181.7,203.2z M180.4,199.7l-2.1-6l-2.1,6H180.4z"/>
</g>
</svg>
