<svg xmlns="http://www.w3.org/2000/svg" width="268.552" height="268.552" viewBox="0 0 268.552 268.552"><circle cx="134.276" cy="134.276" r="134.276" fill="#fff"/><path d="M73.87,133.7h2.563a1.7,1.7,0,0,1,1.7,1.7h0a6.949,6.949,0,0,1,5.013-2.205,6.331,6.331,0,0,1,5,2.017q1.545,1.716,1.546,5.6v11.252H87.472a2.048,2.048,0,0,1-2.048-2.048v-8.205a6.729,6.729,0,0,0-.754-3.751A3.042,3.042,0,0,0,81.993,137a3.274,3.274,0,0,0-3,1.395,9.6,9.6,0,0,0-.866,4.807v8.858H75.918a2.048,2.048,0,0,1-2.048-2.048Z" fill="#999"/><path d="M103.7,142.75a9.126,9.126,0,0,1,2.846-6.767,10.042,10.042,0,0,1,13.911.02,9.829,9.829,0,0,1-.019,13.815,9.726,9.726,0,0,1-7.031,2.771,9.33,9.33,0,0,1-6.917-2.827A9.508,9.508,0,0,1,103.7,142.75Zm4.335.076a6.194,6.194,0,0,0,1.471,4.354,5.714,5.714,0,0,0,7.954.018,6.891,6.891,0,0,0,0-8.557,5.644,5.644,0,0,0-7.917,0A5.9,5.9,0,0,0,108.032,142.826Z" fill="#999"/><path d="M140.31,134.9l4.259,9.286,3.62-8.489a1.706,1.706,0,0,1,3.137,0l3.647,8.493,4.2-9.278a2.049,2.049,0,0,1,1.866-1.2h3.429l-8.636,17.73a1.024,1.024,0,0,1-1.861-.042l-4.223-9.772-4.276,9.784a1.024,1.024,0,0,1-1.859.038L134.994,133.7h3.455A2.045,2.045,0,0,1,140.31,134.9Z"/><path d="M190.423,133.7h2.337a1.923,1.923,0,0,1,1.923,1.923v16.435h-2.338a1.923,1.923,0,0,1-1.922-1.922h0a8.145,8.145,0,0,1-11.931-.3,10.232,10.232,0,0,1-2.469-7.011,9.92,9.92,0,0,1,2.469-6.88,7.96,7.96,0,0,1,6.182-2.752,7.808,7.808,0,0,1,5.749,2.639Zm-10.065,9.123a6.389,6.389,0,0,0,1.414,4.3,4.629,4.629,0,0,0,3.656,1.677,4.871,4.871,0,0,0,3.808-1.62,6.979,6.979,0,0,0,0-8.52,4.8,4.8,0,0,0-3.77-1.64,4.688,4.688,0,0,0-3.657,1.659A6.114,6.114,0,0,0,180.358,142.826Z"/><path d="M165.251,69.8a30.966,30.966,0,0,1-30.966,30.966c-17.1,0-31.561-13.874-30.966-30.966.615-17.657,16.141-23.265,32.56-22.648C152.968,47.8,165.251,52.7,165.251,69.8Z"/><path d="M116.155,196.925v26.807h-8.936V196.925h-7.34v-7.568H123.5v7.568Z"/><path d="M142.689,189.357l8.3,20.926,8.342-20.926h9.711l-14.5,34.375H147.43l-14.453-34.375Z"/></svg>