<svg xmlns="http://www.w3.org/2000/svg" width="424.004" height="194.204" viewBox="0 0 424.004 194.204"><path d="M77.5,168.589H67.644a3.65,3.65,0,0,1-3.65-3.65v-4.917h9.853a3.65,3.65,0,0,1,3.65,3.65Z"/><path d="M158.965,192.458H131.683a3.65,3.65,0,0,1-3.65-3.65v-3.484h22.932V166.586H131.683a3.65,3.65,0,0,1-3.65-3.65v-3.48h30.932Z"/><path d="M14.855,186.127H11.732s0,2.6,0,4.291a3.975,3.975,0,0,0,3.356,3.55c.73.106,2.887.16,3.628.16a15.353,15.353,0,0,0,15.336-15.335V158.349H0v14.915a4,4,0,0,0,4,4H8V165.5H26.053v13.024a7.523,7.523,0,0,1-7.2,7.605C17.807,186.149,14.855,186.127,14.855,186.127Z"/><path d="M77.374,193.358H71.593a3.65,3.65,0,0,1-3.65-3.65v-4.35h9.43A12.208,12.208,0,0,0,89.581,173.15V162.556h8v10.6A20.207,20.207,0,0,1,77.374,193.358Z"/><path d="M267.9,41.263a56.3,56.3,0,0,1-56.305,56.3c-31.1,0-57.386-25.227-56.3-56.3,1.118-32.106,29.349-42.3,59.2-41.181C245.565,1.25,267.9,10.166,267.9,41.263Z"/><path d="M252.287,175.942a16.939,16.939,0,0,1,5.283-12.561,18.639,18.639,0,0,1,25.82.036,18.244,18.244,0,0,1-.035,25.644,18.056,18.056,0,0,1-13.05,5.143,17.319,17.319,0,0,1-12.84-5.248A17.648,17.648,0,0,1,252.287,175.942Zm8.047.14a11.492,11.492,0,0,0,2.729,8.081,10.606,10.606,0,0,0,14.764.035,12.791,12.791,0,0,0,0-15.883,10.474,10.474,0,0,0-14.694,0A10.948,10.948,0,0,0,260.334,176.082Z" fill="#999"/><path d="M321,160.551l8.372,18.252,7.114-16.685a3.354,3.354,0,0,1,6.168-.008l7.169,16.693,8.265-18.236a4.027,4.027,0,0,1,3.667-2.363H368.5l-16.976,34.852a2.013,2.013,0,0,1-3.657-.083l-8.3-19.208L331.158,193a2.013,2.013,0,0,1-3.655.074L310.553,158.2h6.79A4.025,4.025,0,0,1,321,160.551Z"/><path d="M416.1,159.148h4.338A3.569,3.569,0,0,1,424,162.717v30.507h-4.338a3.569,3.569,0,0,1-3.569-3.569h0q-4.861,4.549-10.46,4.549a15.069,15.069,0,0,1-11.685-5.108,18.993,18.993,0,0,1-4.583-13.014,18.406,18.406,0,0,1,4.583-12.77,14.773,14.773,0,0,1,11.475-5.108,14.492,14.492,0,0,1,10.67,4.9Zm-18.682,16.934a11.868,11.868,0,0,0,2.624,7.976,8.594,8.594,0,0,0,6.788,3.113,9.036,9.036,0,0,0,7.067-3.008,12.951,12.951,0,0,0,0-15.814,8.913,8.913,0,0,0-7-3.043,8.7,8.7,0,0,0-6.787,3.078A11.353,11.353,0,0,0,397.415,176.082Z"/><path d="M223.61,162.052q-3.417-3.849-9.53-3.848a13.259,13.259,0,0,0-9.566,4.208v-.54a3.669,3.669,0,0,0-3.669-3.668h-4.459v32.332a3.669,3.669,0,0,0,3.669,3.668h4.459V177.3q0-6.546,1.654-9.171,1.69-2.661,5.718-2.661,3.7,0,5.108,2.013,1.437,1.98,1.438,7.157V190.3a3.908,3.908,0,0,0,3.907,3.908h4.221V172.733Q226.56,165.325,223.61,162.052Z" fill="#999"/></svg>