<svg xmlns="http://www.w3.org/2000/svg" width="149.879mm" height="68.523mm" viewBox="0 0 424.855 194.239"><path d="M268.748,41.263a56.3,56.3,0,0,1-56.3,56.3c-31.1,0-57.386-25.227-56.3-56.3,1.117-32.106,29.348-42.3,59.2-41.181C246.415,1.25,268.748,10.166,268.748,41.263Z"/><path d="M253.138,175.942a16.935,16.935,0,0,1,5.283-12.561,18.638,18.638,0,0,1,25.819.036,18.244,18.244,0,0,1-.035,25.644,18.054,18.054,0,0,1-13.049,5.143,17.321,17.321,0,0,1-12.841-5.248A17.647,17.647,0,0,1,253.138,175.942Zm8.047.14a11.492,11.492,0,0,0,2.729,8.081,10.605,10.605,0,0,0,14.763.035,12.791,12.791,0,0,0,0-15.883,10.474,10.474,0,0,0-14.694,0A10.947,10.947,0,0,0,261.185,176.082Z" fill="#999"/><path d="M321.853,160.551l8.371,18.252,7.114-16.685a3.354,3.354,0,0,1,6.168-.008l7.169,16.693,8.266-18.236a4.024,4.024,0,0,1,3.666-2.363h6.741l-16.976,34.852a2.013,2.013,0,0,1-3.657-.083l-8.3-19.208L332.008,193a2.012,2.012,0,0,1-3.654.074L311.4,158.2h6.791A4.026,4.026,0,0,1,321.853,160.551Z"/><path d="M416.948,159.148h4.338a3.569,3.569,0,0,1,3.569,3.569v30.507h-4.338a3.569,3.569,0,0,1-3.569-3.569h0q-4.863,4.549-10.461,4.549A15.072,15.072,0,0,1,394.8,189.1a19,19,0,0,1-4.583-13.014,18.41,18.41,0,0,1,4.583-12.77,14.775,14.775,0,0,1,11.476-5.108,14.493,14.493,0,0,1,10.67,4.9Zm-18.682,16.934a11.863,11.863,0,0,0,2.624,7.976,8.592,8.592,0,0,0,6.787,3.113,9.033,9.033,0,0,0,7.067-3.008,12.951,12.951,0,0,0,0-15.814,8.91,8.91,0,0,0-7-3.043,8.7,8.7,0,0,0-6.788,3.078A11.352,11.352,0,0,0,398.266,176.082Z"/><path d="M224.461,162.052q-3.417-3.849-9.53-3.848a13.261,13.261,0,0,0-9.567,4.208v-.54A3.668,3.668,0,0,0,201.7,158.2h-4.459v32.332a3.668,3.668,0,0,0,3.668,3.668h4.459V177.3q0-6.546,1.654-9.171,1.691-2.661,5.719-2.661,3.7,0,5.107,2.013,1.437,1.98,1.438,7.157V190.3a3.908,3.908,0,0,0,3.908,3.908h4.22V172.733Q227.41,165.325,224.461,162.052Z" fill="#999"/><path d="M33.125,169.08H22.555v-6.5h8a.083.083,0,0,0,.082-.083v-3.862a3.654,3.654,0,0,0-3.654-3.655H6.556a.083.083,0,0,0-.083.083v3.862a3.655,3.655,0,0,0,3.655,3.655h4.427v6.5H.085a.085.085,0,0,0-.085.085v3.73a3.985,3.985,0,0,0,3.985,3.985h10.57v2.581a6.541,6.541,0,0,1-7.048,6.77H3.021v3.712a3.737,3.737,0,0,0,0,.449v.079h.006a4.024,4.024,0,0,0,3.606,3.69,14.3,14.3,0,0,0,1.493.078A14.446,14.446,0,0,0,22.555,179.81v-2.93H37.026a.085.085,0,0,0,.085-.085v-3.73A3.986,3.986,0,0,0,33.125,169.08Z"/><path d="M78.874,185.965H75.751s0,2.6,0,4.291a3.974,3.974,0,0,0,3.356,3.55c.73.107,2.887.161,3.628.161a15.354,15.354,0,0,0,15.336-15.336V158.187H64.019V173.1a4,4,0,0,0,4,4h4V165.337H90.072v13.024a7.522,7.522,0,0,1-7.2,7.6C81.826,185.988,78.874,185.965,78.874,185.965Z"/><path d="M144.058,185.965h-3.123s0,2.6,0,4.291a3.974,3.974,0,0,0,3.355,3.55c.731.107,2.887.161,3.628.161a15.353,15.353,0,0,0,15.336-15.336V158.187H129.2V173.1a4,4,0,0,0,4,4h4V165.337h18.052v13.024a7.522,7.522,0,0,1-7.2,7.6C147.01,185.988,144.058,185.965,144.058,185.965Z"/></svg>